<svg width="20" height="20" viewBox="0 0 20 20" fill="none" xmlns="http://www.w3.org/2000/svg">
<path d="M9.51688 5.80438C7.35063 5.80438 5.58813 7.56688 5.58813 9.73313C5.58813 11.8994 7.35063 13.6619 9.51688 13.6619C11.6825 13.6619 13.4456 11.8994 13.4456 9.73313C13.4456 7.56688 11.6825 5.80438 9.51688 5.80438ZM9.51688 12.5369C7.97063 12.5369 6.71313 11.2794 6.71313 9.73376C6.71313 8.18813 7.97063 6.93063 9.51688 6.93063C11.0625 6.93063 12.32 8.18813 12.32 9.73376C12.32 11.2794 11.0625 12.5369 9.51688 12.5369Z" fill="black"/>
<path d="M17.5412 8.46561C17.2356 8.52124 17.0331 8.81499 17.0894 9.11999C17.17 9.56124 17.2106 10.0231 17.2106 10.4937C17.2106 12.7581 16.2212 14.7906 14.6594 16.2L14.5637 16.0356C14.0437 15.1369 13.075 14.5787 12.0369 14.5787H6.995C5.95687 14.5787 4.98875 15.1375 4.4675 16.0356L4.37312 16.1987C2.81187 14.79 1.82312 12.7581 1.82312 10.4944C1.82312 6.25186 5.27437 2.80061 9.51687 2.80061C9.965 2.80061 10.4162 2.83999 10.8575 2.91749C11.1612 2.96624 11.4544 2.76686 11.5087 2.46061C11.5625 2.15499 11.3581 1.86311 11.0519 1.80936C10.5475 1.71999 10.0312 1.67499 9.51812 1.67499C4.65562 1.67499 0.699371 5.63124 0.699371 10.4937C0.699371 15.3562 4.65562 19.3125 9.51812 19.3125C14.3806 19.3125 18.3369 15.3562 18.3369 10.4937C18.3369 9.95561 18.2894 9.42499 18.1956 8.91749C18.14 8.61124 17.8487 8.40749 17.5412 8.46561ZM5.26687 16.9006L5.44187 16.5987C5.76187 16.0462 6.3575 15.7031 6.99562 15.7031H12.0375C12.6756 15.7031 13.2712 16.0462 13.5912 16.5987L13.7669 16.9012C12.5481 17.7119 11.0881 18.1869 9.5175 18.1869C7.94687 18.1875 6.48625 17.7119 5.26687 16.9006Z" fill="black"/>
<path d="M15.7694 7.75C17.7163 7.75 19.3006 6.16563 19.3006 4.21875C19.3006 2.27188 17.7163 0.6875 15.7694 0.6875C13.8225 0.6875 12.2381 2.27188 12.2381 4.21875C12.2381 6.16563 13.8225 7.75 15.7694 7.75ZM15.7694 1.8125C17.0963 1.8125 18.1756 2.89188 18.1756 4.21875C18.1756 5.54563 17.0963 6.625 15.7694 6.625C14.4425 6.625 13.3631 5.54563 13.3631 4.21875C13.3631 2.89188 14.4425 1.8125 15.7694 1.8125Z" fill="black"/>
<path d="M14.8869 5.14938C14.9794 5.2675 15.1156 5.345 15.265 5.36188C15.2862 5.36438 15.3075 5.36563 15.3294 5.36563C15.4569 5.36563 15.5819 5.32188 15.6819 5.24125L17.1312 4.07313C17.3737 3.8775 17.4112 3.52375 17.2169 3.28188C17.0212 3.04063 16.6681 3.00188 16.4256 3.19625L15.42 4.00688L15.2019 3.72938C15.0119 3.485 14.6575 3.44 14.4125 3.63375C14.1675 3.825 14.125 4.17875 14.3169 4.42313L14.8869 5.14938Z" fill="black"/>
</svg>
