<svg width="18" height="19" viewBox="0 0 18 19" fill="none" xmlns="http://www.w3.org/2000/svg">
<g clip-path="url(#clip0_1_12109)">
<path d="M6 8C4.13925 8 2.625 6.48575 2.625 4.625C2.625 2.76425 4.13925 1.25 6 1.25C7.86075 1.25 9.375 2.76425 9.375 4.625C9.375 6.48575 7.86075 8 6 8ZM6 2C4.5525 2 3.375 3.1775 3.375 4.625C3.375 6.0725 4.5525 7.25 6 7.25C7.4475 7.25 8.625 6.0725 8.625 4.625C8.625 3.1775 7.4475 2 6 2Z" fill="black"/>
<path d="M6.375 15.5H0.375C0.168 15.5 0 15.332 0 15.125V12.125C0 10.6775 1.1775 9.5 2.625 9.5H9.375C9.582 9.5 9.75 9.668 9.75 9.875C9.75 10.082 9.582 10.25 9.375 10.25H2.625C1.5915 10.25 0.75 11.0908 0.75 12.125V14.75H6.375C6.582 14.75 6.75 14.918 6.75 15.125C6.75 15.332 6.582 15.5 6.375 15.5Z" fill="black"/>
<path d="M8.54775 4.68725C7.65675 4.68725 7.014 4.082 6.681 3.674C5.0055 4.96475 3.024 4.63475 2.93475 4.619C2.7315 4.583 2.59575 4.39025 2.631 4.18625C2.66625 3.98225 2.859 3.8465 3.0645 3.881C3.08325 3.8825 5.0415 4.199 6.495 2.8505C6.57825 2.7725 6.69375 2.7365 6.8055 2.7545C6.918 2.771 7.017 2.8385 7.07475 2.93675C7.10475 2.987 7.818 4.18175 8.9025 3.8885C9.1035 3.836 9.309 3.95225 9.36225 4.1525C9.41625 4.35275 9.2985 4.55825 9.09825 4.61225C8.9055 4.664 8.72175 4.68725 8.54775 4.68725Z" fill="black"/>
<path d="M13.125 18.5C10.3913 18.5 8.25 17.3472 8.25 15.875V13.625C8.25 13.418 8.418 13.25 8.625 13.25C8.832 13.25 9 13.418 9 13.625V15.875C9 16.7622 10.6943 17.75 13.125 17.75C15.5558 17.75 17.25 16.7622 17.25 15.875V13.625C17.25 13.418 17.418 13.25 17.625 13.25C17.832 13.25 18 13.418 18 13.625V15.875C18 17.3472 15.8588 18.5 13.125 18.5Z" fill="black"/>
<path d="M13.125 16.25C10.3913 16.25 8.25 15.0972 8.25 13.625C8.25 12.1528 10.3913 11 13.125 11C15.8588 11 18 12.1528 18 13.625C18 15.0972 15.8588 16.25 13.125 16.25ZM13.125 11.75C10.6943 11.75 9 12.7378 9 13.625C9 14.5122 10.6943 15.5 13.125 15.5C15.5558 15.5 17.25 14.5122 17.25 13.625C17.25 12.7378 15.5558 11.75 13.125 11.75Z" fill="black"/>
</g>
<defs>
<clipPath id="clip0_1_12109">
<rect width="18" height="18" fill="white" transform="translate(0 0.5)"/>
</clipPath>
</defs>
</svg>
