<svg width="21" height="21" viewBox="0 0 21 21" fill="none" xmlns="http://www.w3.org/2000/svg">
<path d="M15.1713 4.5597L10.9116 0.273619C10.8816 0.243462 10.8459 0.219531 10.8067 0.203201C10.7674 0.186871 10.7253 0.178465 10.6828 0.178467L1.35408 0.178467C1.00133 0.178872 0.66314 0.319182 0.413707 0.568615C0.164275 0.818047 0.0239651 1.15623 0.0235596 1.50899V19.4911C0.0239651 19.8439 0.164275 20.1821 0.413707 20.4315C0.66314 20.681 1.00133 20.8213 1.35408 20.8217H13.9347C14.2874 20.8213 14.6256 20.681 14.8751 20.4315C15.1245 20.1821 15.2648 19.8439 15.2652 19.4911V13.1934L19.4699 8.98856C19.8244 8.63408 20.0236 8.1533 20.0236 7.65199C20.0236 7.15068 19.8244 6.6699 19.4699 6.31542C19.1155 5.96094 18.6347 5.7618 18.1334 5.7618C17.6321 5.7618 17.1513 5.96094 16.7968 6.31542L15.2651 7.84713V4.78694C15.2651 4.70178 15.2313 4.6201 15.1713 4.5597ZM15.7656 8.25899L17.5264 10.0197L11.3536 16.1925L9.59281 14.4318L15.7656 8.25899ZM16.6552 7.36936L18.416 9.13012L17.9825 9.56358L16.2219 7.80274L16.6552 7.36936ZM9.30123 15.0521L10.7269 16.4778L8.94771 16.8095L9.30123 15.0521ZM11.1647 1.44347L13.983 4.27896H11.1647V1.44347ZM14.6201 19.4911C14.6199 19.6729 14.5476 19.8471 14.4191 19.9756C14.2906 20.1041 14.1164 20.1764 13.9347 20.1766H1.35408C1.17236 20.1764 0.998135 20.1041 0.869638 19.9756C0.741141 19.8471 0.668862 19.6729 0.66866 19.4911V1.50899C0.668862 1.32726 0.741141 1.15304 0.869638 1.02455C0.998135 0.896048 1.17236 0.82377 1.35408 0.823567H10.5196V4.60143C10.5196 4.68698 10.5536 4.76902 10.6141 4.82951C10.6746 4.89 10.7566 4.92398 10.8422 4.92398H14.62V8.49219L8.85893 14.2535C8.81399 14.2984 8.78333 14.3556 8.77079 14.4179L8.22109 17.1507C8.21068 17.2024 8.21313 17.2559 8.22821 17.3065C8.2433 17.3571 8.27056 17.4032 8.30761 17.4407C8.34466 17.4783 8.39037 17.5062 8.44072 17.522C8.49107 17.5378 8.54453 17.541 8.59641 17.5314L11.363 17.0156C11.4271 17.0037 11.486 16.9726 11.532 16.9266L14.6201 13.8385V19.4911ZM19.0137 6.77163C19.2461 7.00571 19.3765 7.32217 19.3765 7.65201C19.3765 7.98185 19.2461 8.29831 19.0137 8.53239L18.8721 8.67399L17.1114 6.91323L17.2529 6.77163C17.4866 6.53848 17.8032 6.40755 18.1333 6.40755C18.4634 6.40755 18.78 6.53848 19.0137 6.77163ZM7.84701 15.2983C7.84701 15.3838 7.81303 15.4659 7.75254 15.5264C7.69205 15.5868 7.61 15.6208 7.52446 15.6208H2.48853C2.40298 15.6208 2.32094 15.5868 2.26045 15.5264C2.19996 15.4659 2.16598 15.3838 2.16598 15.2983C2.16598 15.2127 2.19996 15.1307 2.26045 15.0702C2.32094 15.0097 2.40298 14.9757 2.48853 14.9757H7.52434C7.56671 14.9757 7.60866 14.984 7.64781 15.0002C7.68696 15.0164 7.72253 15.0402 7.75249 15.0702C7.78246 15.1001 7.80623 15.1357 7.82244 15.1748C7.83866 15.214 7.84701 15.2559 7.84701 15.2983ZM2.1661 12.4873C2.1661 12.4017 2.20008 12.3197 2.26057 12.2592C2.32106 12.1987 2.4031 12.1647 2.48865 12.1647H9.14265C9.2282 12.1647 9.31024 12.1987 9.37073 12.2592C9.43122 12.3197 9.4652 12.4017 9.4652 12.4873C9.4652 12.5728 9.43122 12.6548 9.37073 12.7153C9.31024 12.7758 9.2282 12.8098 9.14265 12.8098H2.48853C2.40298 12.8098 2.32094 12.7758 2.26045 12.7153C2.19996 12.6548 2.16598 12.5728 2.16598 12.4873H2.1661ZM2.1661 9.67623C2.1661 9.59069 2.20008 9.50865 2.26057 9.44816C2.32106 9.38767 2.4031 9.35368 2.48865 9.35368H12.8002C12.8858 9.35368 12.9678 9.38767 13.0283 9.44816C13.0888 9.50865 13.1228 9.59069 13.1228 9.67623C13.1228 9.76178 13.0888 9.84382 13.0283 9.90431C12.9678 9.9648 12.8858 9.99878 12.8002 9.99878H2.48853C2.40298 9.99878 2.32094 9.9648 2.26045 9.90431C2.19996 9.84382 2.16598 9.76178 2.16598 9.67623H2.1661ZM2.1661 6.86525C2.1661 6.77971 2.20008 6.69766 2.26057 6.63717C2.32106 6.57668 2.4031 6.5427 2.48865 6.5427H12.8002C12.8858 6.5427 12.9678 6.57668 13.0283 6.63717C13.0888 6.69766 13.1228 6.77971 13.1228 6.86525C13.1228 6.9508 13.0888 7.03284 13.0283 7.09333C12.9678 7.15382 12.8858 7.1878 12.8002 7.1878H2.48853C2.40298 7.1878 2.32094 7.15382 2.26045 7.09333C2.19996 7.03284 2.16598 6.9508 2.16598 6.86525H2.1661ZM2.1661 4.05423C2.1661 3.96868 2.20008 3.88664 2.26057 3.82615C2.32106 3.76566 2.4031 3.73168 2.48865 3.73168H9.31671C9.40225 3.73168 9.48429 3.76566 9.54479 3.82615C9.60528 3.88664 9.63926 3.96868 9.63926 4.05423C9.63926 4.13977 9.60528 4.22181 9.54479 4.2823C9.48429 4.34279 9.40225 4.37678 9.31671 4.37678H2.48853C2.40298 4.37678 2.32094 4.34279 2.26045 4.2823C2.19996 4.22181 2.16598 4.13977 2.16598 4.05423H2.1661Z" fill="black"/>
</svg>
