<svg width="24" height="24" viewBox="0 0 24 24" fill="none" xmlns="http://www.w3.org/2000/svg">
<path d="M20.9463 9.16639C24.4661 23.2805 2.9985 26.6484 2.16194 11.9828C2.02692 5.32421 9.231 0.484185 15.3403 3.0701C15.4307 3.10481 15.531 3.10268 15.6198 3.06415C15.7086 3.02562 15.7787 2.95378 15.8151 2.86409C15.8515 2.77439 15.8512 2.67401 15.8143 2.58453C15.7774 2.49505 15.7068 2.42363 15.6178 2.38563C0.10183 -2.70242 -4.65663 21.1766 11.7638 22.3233C18.5956 22.4345 23.7422 15.432 21.6521 8.94912C21.6219 8.8572 21.5569 8.78081 21.4709 8.73636C21.385 8.6919 21.2851 8.68295 21.1926 8.71141C21.1001 8.73987 21.0225 8.80348 20.9765 8.88856C20.9304 8.97364 20.9196 9.0734 20.9463 9.16639Z" fill="black"/>
<path d="M15.0159 3.73599C5.77369 0.298177 -1.44107 11.9198 5.88892 18.5846C9.06876 21.583 14.4785 21.6205 17.6223 18.5862C20.0736 16.3967 21.362 12.7402 20.249 9.4297C20.2189 9.33778 20.1539 9.26133 20.0681 9.21678C19.9822 9.17223 19.8823 9.16314 19.7898 9.19146C19.6973 9.21978 19.6196 9.28325 19.5735 9.36824C19.5273 9.45322 19.5162 9.55294 19.5428 9.64596C19.9636 10.9904 20.018 12.4227 19.7004 13.7951C19.3828 15.1676 18.7047 16.4304 17.7361 17.4533C15.9325 11.7346 7.59678 11.7619 5.78771 17.4725C0.0774109 11.3289 6.67476 1.26571 14.7456 4.42326C14.8363 4.45706 14.9367 4.4539 15.0251 4.41446C15.1135 4.37502 15.1828 4.30244 15.2183 4.21236C15.2537 4.12227 15.2523 4.02188 15.2145 3.93279C15.1766 3.8437 15.1053 3.77303 15.0159 3.73599ZM17.1318 18.0399C14.297 20.512 9.83061 21.069 6.39122 18.0612C7.77187 12.5505 15.7475 12.5129 17.1318 18.0399Z" fill="black"/>
<path d="M8.07071 9.0634C8.07071 10.0429 8.45979 10.9822 9.15238 11.6748C9.84496 12.3674 10.7843 12.7565 11.7638 12.7565C12.7432 12.7565 13.6826 12.3674 14.3752 11.6748C15.0677 10.9822 15.4568 10.0429 15.4568 9.06343C15.2548 4.16544 8.27349 4.16402 8.07071 9.0634ZM8.80932 9.0634C8.958 5.14901 14.5704 5.15068 14.7182 9.06337C14.5703 12.9764 8.95786 12.9775 8.80932 9.0634Z" fill="black"/>
<path d="M19.1762 8.48744C20.0574 8.48642 20.9023 8.13591 21.5254 7.51281C22.1485 6.88971 22.499 6.0449 22.5 5.1637C22.3261 0.758709 16.027 0.75749 15.8525 5.16368C15.8535 6.04488 16.204 6.8897 16.8271 7.5128C17.4502 8.13591 18.295 8.48642 19.1762 8.48744ZM19.1762 2.57853C19.8616 2.5793 20.5187 2.8519 21.0033 3.33653C21.488 3.82117 21.7606 4.47825 21.7614 5.16363C21.6405 8.58428 16.7124 8.58515 16.5911 5.16368C16.5919 4.47829 16.8645 3.82119 17.3491 3.33655C17.8338 2.85191 18.4908 2.5793 19.1762 2.57853Z" fill="black"/>
<path d="M20.4425 5.53301C20.5392 5.53116 20.6313 5.49144 20.6991 5.42238C20.7668 5.35332 20.8048 5.26044 20.8048 5.1637C20.8048 5.06696 20.7668 4.97408 20.6991 4.90502C20.6313 4.83597 20.5392 4.79624 20.4425 4.79439H19.5455V3.89748C19.5436 3.80085 19.5038 3.70886 19.4347 3.64123C19.3657 3.57359 19.2729 3.53571 19.1763 3.53571C19.0796 3.5357 18.9868 3.57357 18.9178 3.64119C18.8487 3.70882 18.8089 3.80081 18.8069 3.89743C18.8263 5.80938 18.5279 5.51439 20.4425 5.53301Z" fill="black"/>
</svg>
