<svg width="20" height="20" viewBox="0 0 20 20" fill="none" xmlns="http://www.w3.org/2000/svg">
<path d="M17.6017 9.96519V2.27569C17.6017 1.93425 17.3227 1.65635 16.979 1.65635H12.8083V0.276243C12.8083 0.123757 12.6845 0 12.532 0C12.3796 0 12.2558 0.123757 12.2558 0.276243V1.65635H5.34586V0.29558C5.34586 0.143094 5.2221 0.0193369 5.06961 0.0193369C4.91713 0.0193369 4.79337 0.143094 4.79337 0.29558V1.65635H0.622652C0.279005 1.65635 0 1.93425 0 2.27569V18.4541C0 18.7956 0.279005 19.0735 0.622652 19.0735H11.3481C12.232 19.6586 13.2939 20 14.4343 20C17.5028 20 20 17.5293 20 14.4917C20 12.6182 19.0497 10.9602 17.6017 9.96519ZM0.552486 2.27569C0.552486 2.23867 0.583978 2.20884 0.622652 2.20884H4.79337V3.50387C4.79337 3.65635 4.91713 3.78011 5.06961 3.78011C5.2221 3.78011 5.34586 3.65635 5.34586 3.50387V2.20884H12.2558V3.48453C12.2558 3.63757 12.3796 3.76077 12.532 3.76077C12.6845 3.76077 12.8083 3.63757 12.8083 3.48453V2.20884H16.979C17.0177 2.20884 17.0492 2.23867 17.0492 2.27569V5.77514H0.552486V2.27569ZM0.622652 18.521C0.583978 18.521 0.552486 18.4912 0.552486 18.4541V6.32762H17.0492V9.63039C16.2691 9.21768 15.379 8.98343 14.4343 8.98343C11.3652 8.98343 8.86851 11.4547 8.86851 14.4917C8.86851 16.0812 9.55193 17.5149 10.6436 18.521H0.622652ZM14.4343 19.4475C11.6696 19.4475 9.42099 17.2243 9.42099 14.4917C9.42099 11.7591 11.6696 9.53591 14.4343 9.53591C17.1983 9.53591 19.4475 11.7591 19.4475 14.4917C19.4475 17.2243 17.1983 19.4475 14.4343 19.4475Z" fill="black"/>
<path d="M17.7403 14.4917C17.7403 14.6442 17.6166 14.768 17.4641 14.768H14.4343C14.2818 14.768 14.158 14.6442 14.158 14.4917V10.9873C14.158 10.8348 14.2818 10.7111 14.4343 10.7111C14.5867 10.7111 14.7105 10.8348 14.7105 10.9873V14.2155H17.4641C17.6166 14.2155 17.7403 14.3392 17.7403 14.4917Z" fill="black"/>
</svg>
