<svg width="20" height="20" viewBox="0 0 20 20" fill="none" xmlns="http://www.w3.org/2000/svg">
<g clip-path="url(#clip0_1_12286)">
<path d="M11.1633 8.64999H9.61C9.27419 8.6504 8.95224 8.78398 8.71479 9.02144C8.47733 9.2589 8.34375 9.58084 8.34333 9.91665V11.47C8.34326 11.6364 8.37597 11.8011 8.4396 11.9548C8.50323 12.1085 8.59652 12.2482 8.71416 12.3658C8.8318 12.4835 8.97146 12.5768 9.12518 12.6404C9.27889 12.704 9.44364 12.7367 9.61 12.7367H11.1633C11.4991 12.7362 11.8211 12.6027 12.0585 12.3652C12.296 12.1277 12.4296 11.8058 12.43 11.47V9.91665C12.429 9.58101 12.2953 9.2594 12.0579 9.02207C11.8206 8.78473 11.499 8.65097 11.1633 8.64999ZM11.7633 11.47C11.7629 11.629 11.6995 11.7813 11.5871 11.8937C11.4747 12.0062 11.3223 12.0695 11.1633 12.07H9.61C9.53119 12.07 9.45315 12.0546 9.38033 12.0244C9.30751 11.9943 9.24135 11.9501 9.18562 11.8944C9.1299 11.8386 9.0857 11.7725 9.05557 11.6997C9.02543 11.6268 9.00995 11.5488 9.01 11.47V9.91665C9.00995 9.83785 9.02543 9.7598 9.05557 9.68699C9.0857 9.61417 9.1299 9.548 9.18562 9.49228C9.24135 9.43655 9.30751 9.39236 9.38033 9.36222C9.45315 9.33209 9.53119 9.3166 9.61 9.31665H11.1633C11.3223 9.31712 11.4747 9.38048 11.5871 9.4929C11.6995 9.60533 11.7629 9.75767 11.7633 9.91665V11.47ZM17.0667 8.64999H15.5133C15.1775 8.6504 14.8556 8.78399 14.6181 9.02144C14.3807 9.2589 14.2471 9.58084 14.2467 9.91665V11.47C14.2466 11.6363 14.2793 11.8011 14.3429 11.9548C14.4066 12.1085 14.4999 12.2482 14.6175 12.3658C14.7351 12.4835 14.8748 12.5768 15.0285 12.6404C15.1822 12.704 15.347 12.7367 15.5133 12.7367H17.0667C17.4025 12.7362 17.7244 12.6027 17.9619 12.3652C18.1993 12.1277 18.3329 11.8058 18.3333 11.47V9.91665C18.3324 9.58101 18.1986 9.2594 17.9613 9.02207C17.7239 8.78473 17.4023 8.65097 17.0667 8.64999ZM17.6667 11.47C17.6662 11.629 17.6028 11.7813 17.4904 11.8937C17.378 12.0062 17.2257 12.0695 17.0667 12.07H15.5133C15.3543 12.0695 15.202 12.0062 15.0896 11.8937C14.9772 11.7813 14.9138 11.629 14.9133 11.47V9.91665C14.9138 9.75767 14.9772 9.60533 15.0896 9.4929C15.202 9.38048 15.3543 9.31712 15.5133 9.31665H17.0667C17.2257 9.31712 17.378 9.38048 17.4904 9.4929C17.6028 9.60533 17.6662 9.75767 17.6667 9.91665V11.47ZM11.1633 14.1867H9.61C9.27419 14.1871 8.95224 14.3206 8.71479 14.5581C8.47733 14.7956 8.34375 15.1175 8.34333 15.4533V17.0067C8.34326 17.173 8.37597 17.3378 8.4396 17.4915C8.50323 17.6452 8.59653 17.7849 8.71417 17.9025C8.8318 18.0201 8.97147 18.1134 9.12518 18.1771C9.27889 18.2407 9.44364 18.2734 9.61 18.2733H11.1633C11.4991 18.2729 11.8211 18.1393 12.0585 17.9019C12.296 17.6644 12.4296 17.3425 12.43 17.0067V15.4533C12.429 15.1177 12.2953 14.7961 12.0579 14.5587C11.8206 14.3214 11.499 14.1876 11.1633 14.1867ZM11.7633 17.0067C11.7629 17.1656 11.6995 17.318 11.5871 17.4304C11.4747 17.5428 11.3223 17.6062 11.1633 17.6067H9.61C9.53119 17.6067 9.45315 17.5912 9.38033 17.5611C9.30751 17.5309 9.24135 17.4868 9.18563 17.431C9.1299 17.3753 9.08571 17.3091 9.05557 17.2363C9.02544 17.1635 9.00995 17.0855 9.01 17.0067V15.4533C9.00995 15.3745 9.02543 15.2965 9.05557 15.2237C9.0857 15.1508 9.1299 15.0847 9.18562 15.0289C9.24135 14.9732 9.30751 14.929 9.38033 14.8989C9.45315 14.8688 9.53119 14.8533 9.61 14.8533H11.1633C11.3223 14.8538 11.4747 14.9171 11.5871 15.0296C11.6995 15.142 11.7629 15.2943 11.7633 15.4533V17.0067ZM17.0667 14.1867H15.5133C15.1775 14.1871 14.8556 14.3207 14.6181 14.5581C14.3807 14.7956 14.2471 15.1175 14.2467 15.4533V17.0067C14.2466 17.173 14.2793 17.3378 14.3429 17.4915C14.4066 17.6452 14.4999 17.7848 14.6175 17.9025C14.7351 18.0201 14.8748 18.1134 15.0285 18.177C15.1822 18.2407 15.347 18.2734 15.5133 18.2733H17.0667C17.4025 18.2729 17.7244 18.1393 17.9619 17.9019C18.1993 17.6644 18.3329 17.3425 18.3333 17.0067V15.4533C18.3324 15.1177 18.1986 14.7961 17.9613 14.5587C17.7239 14.3214 17.4023 14.1876 17.0667 14.1867ZM17.6667 17.0067C17.6662 17.1656 17.6028 17.318 17.4904 17.4304C17.378 17.5428 17.2257 17.6062 17.0667 17.6067H15.5133C15.3543 17.6062 15.202 17.5428 15.0896 17.4304C14.9772 17.318 14.9138 17.1656 14.9133 17.0067V15.4533C14.9138 15.2943 14.9772 15.142 15.0896 15.0296C15.202 14.9171 15.3543 14.8538 15.5133 14.8533H17.0667C17.2257 14.8538 17.378 14.9171 17.4904 15.0296C17.6028 15.142 17.6662 15.2943 17.6667 15.4533V17.0067ZM0.666667 13.5067V14.1733C0.666667 14.2617 0.631548 14.3465 0.569036 14.409C0.506523 14.4715 0.421739 14.5067 0.333333 14.5067C0.244928 14.5067 0.160143 14.4715 0.0976311 14.409C0.035119 14.3465 0 14.2617 0 14.1733V13.5067C0 13.4182 0.035119 13.3335 0.0976311 13.271C0.160143 13.2084 0.244928 13.1733 0.333333 13.1733C0.421739 13.1733 0.506523 13.2084 0.569036 13.271C0.631548 13.3335 0.666667 13.4182 0.666667 13.5067ZM18.6233 2.16332H16.0633V1.41999C16.0628 1.15051 15.9556 0.892206 15.765 0.701654C15.5744 0.511101 15.3161 0.403826 15.0467 0.40332H14.29C14.0205 0.403826 13.7622 0.511101 13.5717 0.701654C13.3811 0.892206 13.2738 1.15051 13.2733 1.41999V2.16332H6.71V1.41999C6.71003 1.28647 6.68375 1.15425 6.63267 1.03089C6.58159 0.907528 6.5067 0.79544 6.41229 0.701028C6.31788 0.606615 6.20579 0.531729 6.08243 0.480648C5.95907 0.429566 5.82685 0.40329 5.69333 0.40332H4.93667C4.66719 0.403826 4.40889 0.511101 4.21833 0.701654C4.02778 0.892206 3.92051 1.15051 3.92 1.41999V2.16332H1.37667C1.0121 2.16324 0.662399 2.30779 0.404302 2.56527C0.146204 2.82274 0.000799916 3.17209 0 3.53665L0 11.84C0 11.9284 0.035119 12.0132 0.0976311 12.0757C0.160143 12.1382 0.244928 12.1733 0.333333 12.1733C0.421739 12.1733 0.506523 12.1382 0.569036 12.0757C0.631548 12.0132 0.666667 11.9284 0.666667 11.84V7.43999H19.3333V18.22C19.3326 18.4081 19.2576 18.5882 19.1246 18.7212C18.9916 18.8542 18.8114 18.9293 18.6233 18.93H1.37667C1.18859 18.9293 1.00841 18.8542 0.875419 18.7212C0.742425 18.5882 0.667389 18.4081 0.666667 18.22V16.1567H6.15L4.67667 17.6333C4.64576 17.6642 4.62124 17.7008 4.60451 17.7411C4.58778 17.7814 4.57917 17.8247 4.57917 17.8683C4.57917 17.912 4.58778 17.9552 4.60451 17.9955C4.62124 18.0359 4.64576 18.0725 4.67667 18.1033C4.70709 18.1349 4.74359 18.1601 4.78397 18.1773C4.82435 18.1945 4.86778 18.2033 4.91167 18.2033C4.95555 18.2033 4.99898 18.1945 5.03936 18.1773C5.07974 18.1601 5.11624 18.1349 5.14667 18.1033L7.19333 16.06C7.25474 15.9964 7.28935 15.9117 7.29 15.8233C7.28932 15.7359 7.25465 15.6523 7.19333 15.59L5.14667 13.5433C5.11583 13.5124 5.07921 13.4879 5.03888 13.4712C4.99855 13.4544 4.95533 13.4458 4.91167 13.4458C4.86801 13.4458 4.82478 13.4544 4.78445 13.4712C4.74413 13.4879 4.7075 13.5124 4.67667 13.5433C4.61421 13.6063 4.57916 13.6913 4.57916 13.78C4.57916 13.8687 4.61421 13.9537 4.67667 14.0167L6.15 15.49H0.336667C0.257353 15.4934 0.181544 15.5236 0.121611 15.5757C0.0616785 15.6278 0.0211597 15.6986 0.00666667 15.7767C0.00279867 15.7976 0.00056967 15.8187 0 15.84L0 18.22C0.000104265 18.5851 0.145179 18.9352 0.403331 19.1933C0.661484 19.4515 1.01158 19.5965 1.37667 19.5967H18.6233C18.9884 19.5965 19.3385 19.4515 19.5967 19.1933C19.8548 18.9352 19.9999 18.5851 20 18.22V3.53665C19.9992 3.17209 19.8538 2.82274 19.5957 2.56527C19.3376 2.30779 18.9879 2.16324 18.6233 2.16332ZM13.94 1.41999C13.94 1.37402 13.949 1.32851 13.9666 1.28604C13.9842 1.24358 14.01 1.20499 14.0425 1.17249C14.075 1.13999 14.1136 1.11421 14.1561 1.09662C14.1985 1.07903 14.244 1.06998 14.29 1.06999H15.0467C15.0926 1.06998 15.1381 1.07903 15.1806 1.09662C15.2231 1.11421 15.2617 1.13999 15.2942 1.17249C15.3267 1.20499 15.3524 1.24358 15.37 1.28604C15.3876 1.32851 15.3967 1.37402 15.3967 1.41999V3.56999C15.3967 3.61595 15.3876 3.66146 15.37 3.70393C15.3524 3.7464 15.3267 3.78498 15.2942 3.81748C15.2617 3.84998 15.2231 3.87576 15.1806 3.89335C15.1381 3.91094 15.0926 3.91999 15.0467 3.91999H14.29C14.244 3.91999 14.1985 3.91094 14.1561 3.89336C14.1136 3.87577 14.075 3.84999 14.0425 3.81749C14.01 3.78498 13.9842 3.7464 13.9666 3.70393C13.949 3.66147 13.94 3.61595 13.94 3.56999V1.41999ZM4.58667 1.41999C4.58666 1.37402 4.59571 1.32851 4.6133 1.28604C4.63089 1.24358 4.65667 1.20499 4.68917 1.17249C4.72167 1.13999 4.76026 1.11421 4.80272 1.09662C4.84519 1.07903 4.8907 1.06998 4.93667 1.06999H5.69333C5.7393 1.06998 5.78481 1.07903 5.82728 1.09662C5.86974 1.11421 5.90833 1.13999 5.94083 1.17249C5.97333 1.20499 5.99911 1.24358 6.0167 1.28604C6.03429 1.32851 6.04334 1.37402 6.04333 1.41999V3.56999C6.04334 3.61595 6.03429 3.66146 6.0167 3.70393C5.99911 3.7464 5.97333 3.78498 5.94083 3.81748C5.90833 3.84998 5.86974 3.87576 5.82728 3.89335C5.78481 3.91094 5.7393 3.91999 5.69333 3.91999H4.93667C4.8907 3.91999 4.84519 3.91094 4.80272 3.89336C4.76026 3.87577 4.72167 3.84999 4.68917 3.81749C4.65667 3.78498 4.63089 3.7464 4.6133 3.70393C4.59571 3.66147 4.58666 3.61595 4.58667 3.56999V1.41999ZM19.3333 6.77332H0.666667V3.53665C0.667519 3.34892 0.742702 3.16917 0.875764 3.03673C1.00883 2.90429 1.18893 2.82996 1.37667 2.82999H3.92V3.56999C3.92051 3.83947 4.02778 4.09777 4.21833 4.28832C4.40889 4.47887 4.66719 4.58615 4.93667 4.58665H5.69333C5.82685 4.58668 5.95907 4.56041 6.08243 4.50933C6.20579 4.45824 6.31788 4.38336 6.41229 4.28895C6.5067 4.19453 6.58159 4.08245 6.63267 3.95908C6.68375 3.83572 6.71003 3.70351 6.71 3.56999V2.82999H13.2733V3.56999C13.2738 3.83947 13.3811 4.09777 13.5717 4.28832C13.7622 4.47887 14.0205 4.58615 14.29 4.58665H15.0467C15.3161 4.58615 15.5744 4.47887 15.765 4.28832C15.9556 4.09777 16.0628 3.83947 16.0633 3.56999V2.82999H18.6233C18.8111 2.82996 18.9912 2.90429 19.1242 3.03673C19.2573 3.16917 19.3325 3.34892 19.3333 3.53665V6.77332Z" fill="black"/>
</g>
<defs>
<clipPath id="clip0_1_12286">
<rect width="20" height="20" fill="white"/>
</clipPath>
</defs>
</svg>
