<svg width="15" height="15" viewBox="0 0 15 15" fill="none" xmlns="http://www.w3.org/2000/svg">
<path d="M8.83353 14H6.16687M1.02943 3.87997C1.01986 2.9124 1.54152 2.00887 2.38423 1.53337M13.9683 3.87997C13.9779 2.91241 13.4562 2.00888 12.6135 1.53338M11.5002 5.33337C11.5002 4.27251 11.0788 3.25509 10.3286 2.50495C9.57848 1.7548 8.56106 1.33337 7.5002 1.33337C6.43933 1.33337 5.42192 1.7548 4.67177 2.50495C3.92163 3.25509 3.5002 4.27251 3.5002 5.33337C3.5002 7.3935 2.98051 8.80401 2.39998 9.73698C1.91028 10.524 1.66544 10.9174 1.67442 11.0272C1.68436 11.1488 1.71011 11.1951 1.80805 11.2678C1.8965 11.3334 2.29526 11.3334 3.09277 11.3334H11.9076C12.7051 11.3334 13.1039 11.3334 13.1923 11.2678C13.2903 11.1951 13.316 11.1488 13.326 11.0272C13.335 10.9174 13.0901 10.524 12.6004 9.73698C12.0199 8.80401 11.5002 7.3935 11.5002 5.33337Z" stroke="#1B73A3" stroke-width="1.33333" stroke-linecap="round" stroke-linejoin="round"/>
</svg>
