<svg xmlns="http://www.w3.org/2000/svg" xmlns:xlink="http://www.w3.org/1999/xlink" width="500" zoomAndPan="magnify" viewBox="0 0 375 374.999991" height="500" preserveAspectRatio="xMidYMid meet" version="1.0"><defs><clipPath id="f0f2dfb12e"><path d="M 13.777344 13.777344 L 361.027344 13.777344 L 361.027344 361.027344 L 13.777344 361.027344 Z M 13.777344 13.777344 " clip-rule="nonzero"/></clipPath></defs><path fill="#ffffff" d="M 187.570312 19.390625 C 94.675781 19.390625 19.390625 94.6875 19.390625 187.566406 C 19.390625 245.175781 48.34375 296.007812 92.496094 326.308594 L 92.511719 326.320312 C 106.953125 334.109375 122.695312 339.773438 139.316406 342.898438 C 139.332031 342.914062 139.347656 342.914062 139.347656 342.914062 C 149.191406 344.773438 159.328125 345.746094 169.699219 345.746094 C 259.757812 345.746094 333.03125 272.476562 333.03125 182.414062 C 333.03125 179.734375 335.210938 177.554688 337.890625 177.554688 C 340.570312 177.554688 342.75 179.734375 342.75 182.414062 C 342.75 256.464844 296 319.796875 230.460938 344.453125 C 230.445312 344.46875 230.417969 344.46875 230.390625 344.46875 C 213.355469 350.882812 195.054688 354.675781 175.960938 355.355469 C 179.792969 355.617188 183.667969 355.757812 187.570312 355.757812 C 280.460938 355.757812 355.742188 280.457031 355.742188 187.566406 C 355.746094 94.6875 280.460938 19.390625 187.570312 19.390625 Z M 250.675781 215.628906 L 215.617188 215.628906 L 215.617188 250.675781 C 215.617188 264.90625 203.066406 276.445312 187.570312 276.445312 C 172.070312 276.445312 159.523438 264.90625 159.523438 250.675781 L 159.523438 215.628906 L 124.460938 215.628906 C 110.230469 215.628906 98.691406 203.0625 98.691406 187.566406 C 98.691406 172.085938 110.230469 159.519531 124.460938 159.519531 L 159.523438 159.519531 L 159.523438 124.457031 C 159.523438 110.226562 172.070312 98.6875 187.570312 98.6875 C 203.066406 98.6875 215.617188 110.226562 215.617188 124.457031 L 215.617188 159.519531 L 250.675781 159.519531 C 264.90625 159.519531 276.449219 172.085938 276.449219 187.566406 C 276.445312 203.0625 264.90625 215.628906 250.675781 215.628906 Z M 334.265625 139.859375 C 329.449219 144.675781 321.644531 144.675781 316.824219 139.859375 C 312.007812 135.023438 312.007812 127.222656 316.824219 122.402344 C 321.644531 117.585938 329.449219 117.585938 334.265625 122.402344 C 339.09375 127.222656 339.09375 135.039062 334.265625 139.859375 Z M 334.265625 139.859375 " fill-opacity="1" fill-rule="nonzero"/><g clip-path="url(#f0f2dfb12e)"><path fill="#ffffff" d="M 187.570312 13.835938 C 91.773438 13.835938 13.835938 91.773438 13.835938 187.566406 C 13.835938 227.070312 27.085938 263.546875 49.398438 292.746094 C 49.398438 292.761719 49.398438 292.761719 49.398438 292.761719 C 49.410156 292.773438 49.425781 292.800781 49.453125 292.816406 L 49.464844 292.832031 C 61.78125 306.246094 76.320312 317.601562 92.496094 326.308594 L 92.511719 326.324219 C 106.949219 334.113281 122.695312 339.777344 139.316406 342.902344 C 73.113281 322.296875 24.929688 260.449219 24.929688 187.566406 C 24.929688 97.898438 97.882812 24.929688 187.570312 24.929688 C 277.238281 24.929688 350.203125 97.898438 350.203125 187.566406 C 350.203125 262.410156 299.382812 325.601562 230.460938 344.457031 C 230.441406 344.46875 230.417969 344.46875 230.390625 344.46875 C 213.351562 350.882812 195.054688 354.675781 175.960938 355.355469 L 175.945312 355.355469 C 173.875 355.425781 171.792969 355.46875 169.695312 355.46875 C 154.171875 355.46875 139.121094 353.414062 124.792969 349.566406 C 144.273438 357.148438 165.449219 361.300781 187.566406 361.300781 C 283.359375 361.300781 361.296875 283.363281 361.296875 187.570312 C 361.296875 91.773438 283.363281 13.835938 187.570312 13.835938 Z M 187.570312 13.835938 " fill-opacity="1" fill-rule="nonzero"/></g></svg>